<svg xmlns="http://www.w3.org/2000/svg" viewBox="0 0 16 16" width="16" height="16" preserveAspectRatio="xMidYMid meet" style="width: 100%; height: 100%; transform: translate3d(0px, 0px, 0px);"><defs><clipPath id="__lottie_element_2"><rect width="16" height="16" x="0" y="0"></rect></clipPath></defs><g clip-path="url(#__lottie_element_2)"><g transform="matrix(1,0,0,1,0,1.0000076293945312)" opacity="1" style="display: none;"><g opacity="1" transform="matrix(1,0,0,1,8,13)"><path fill="rgb(255,255,255)" fill-opacity="1" d=" M-8,1 C-8,1 8,1 8,1 C8,1 8,-1 8,-1 C8,-1 -8,-1 -8,-1 C-8,-1 -8,1 -8,1z"></path></g></g><g transform="matrix(1,0,0,1,0,1)" opacity="1" style="display: none;"><g opacity="1" transform="matrix(1,0,0,1,8,7)"><path fill="rgb(255,255,255)" fill-opacity="1" d=" M-8,1 C-8,1 8,1 8,1 C8,1 8,-1 8,-1 C8,-1 -8,-1 -8,-1 C-8,-1 -8,1 -8,1z"></path></g></g><g transform="matrix(1,0,0,1,0,1)" opacity="1" style="display: none;"><g opacity="1" transform="matrix(1,0,0,1,8,1)"><path fill="rgb(255,255,255)" fill-opacity="1" d=" M-8,1 C-8,1 1,1 1,1 C1,1 1,-1 1,-1 C1,-1 -8,-1 -8,-1 C-8,-1 -8,1 -8,1z M4,-1 M4,1 C4,1 8,1 8,1 C8,1 8,-1 8,-1 C8,-1 4,-1 4,-1 C4,-1 4,1 4,1z"></path></g></g><g style="display: block;" transform="matrix(0.7071084380149841,0.7071051001548767,-0.7071051001548767,0.7071084380149841,11.535499572753906,-6.849245071411133)" opacity="1"><g opacity="1" transform="matrix(1,0,0,1,8,13)"><path fill="rgb(255,255,255)" fill-opacity="1" d=" M-8,1 C-8,1 8,1 8,1 C8,1 8,-1 8,-1 C8,-1 -8,-1 -8,-1 C-8,-1 -8,1 -8,1z"></path></g></g><g style="display: none;" transform="matrix(1,0,0,1,0,1)" opacity="9.235329704893048e-7"><g opacity="1" transform="matrix(1,0,0,1,8,7)"><path fill="rgb(255,255,255)" fill-opacity="1" d=" M-8,1 C-8,1 8,1 8,1 C8,1 8,-1 8,-1 C8,-1 -8,-1 -8,-1 C-8,-1 -8,1 -8,1z"></path></g></g><g style="display: block;" transform="matrix(0.7071084380149841,-0.7071051001548767,0.7071051001548767,0.7071084380149841,1.6360273361206055,12.949727058410645)" opacity="1"><g opacity="1" transform="matrix(1,0,0,1,8,1)"><path fill="rgb(255,255,255)" fill-opacity="1" d=" M-8,1 C-8,1 1,1 1,1 C1,1 1,-1 1,-1 C1,-1 -8,-1 -8,-1 C-8,-1 -8,1 -8,1z M4,-1 M4,1 C4,1 8,1 8,1 C8,1 8,-1 8,-1 C8,-1 4,-1 4,-1 C4,-1 4,1 4,1z"></path></g></g></g></svg>